<svg width="35" height="35" viewBox="0 0 35 35" fill="none" xmlns="http://www.w3.org/2000/svg">
<g id="GitHub Link">
<path id="Vector" d="M17.4998 2.91669C15.5847 2.91669 13.6884 3.2939 11.919 4.02678C10.1497 4.75966 8.54205 5.83386 7.18786 7.18805C4.45296 9.92295 2.9165 13.6323 2.9165 17.5C2.9165 23.9459 7.10192 29.4146 12.8915 31.3542C13.6207 31.4709 13.854 31.0188 13.854 30.625V28.1604C9.81442 29.0354 8.954 26.2063 8.954 26.2063C8.28317 24.5146 7.33525 24.0625 7.33525 24.0625C6.00817 23.1584 7.43734 23.1875 7.43734 23.1875C8.89567 23.2896 9.66859 24.6896 9.66859 24.6896C10.9373 26.9063 13.0811 26.25 13.9123 25.9C14.0436 24.9521 14.4228 24.3104 14.8311 23.9459C11.5936 23.5813 8.19567 22.3271 8.19567 16.7709C8.19567 15.1521 8.74984 13.8542 9.69775 12.8188C9.55192 12.4542 9.0415 10.9375 9.84359 8.96877C9.84359 8.96877 11.0686 8.57502 13.854 10.4563C15.0061 10.1354 16.2603 9.97502 17.4998 9.97502C18.7394 9.97502 19.9936 10.1354 21.1457 10.4563C23.9311 8.57502 25.1561 8.96877 25.1561 8.96877C25.9582 10.9375 25.4478 12.4542 25.3019 12.8188C26.2498 13.8542 26.804 15.1521 26.804 16.7709C26.804 22.3417 23.3915 23.5667 20.1394 23.9313C20.6644 24.3834 21.1457 25.2729 21.1457 26.6292V30.625C21.1457 31.0188 21.379 31.4854 22.1228 31.3542C27.9123 29.4 32.0832 23.9459 32.0832 17.5C32.0832 15.5849 31.706 13.6886 30.9731 11.9192C30.2402 10.1499 29.166 8.54223 27.8118 7.18805C26.4576 5.83386 24.85 4.75966 23.0806 4.02678C21.3113 3.2939 19.4149 2.91669 17.4998 2.91669Z" fill="#111111"/>
</g>
</svg>
